<?xml version="1.0" standalone="no"?>
<!DOCTYPE svg PUBLIC "-//W3C//DTD SVG 20010904//EN"
 "http://www.w3.org/TR/2001/REC-SVG-20010904/DTD/svg10.dtd">
<svg version="1.0" xmlns="http://www.w3.org/2000/svg"
 width="806.000000pt" height="806.000000pt" viewBox="0 0 806.000000 806.000000"
 preserveAspectRatio="xMidYMid meet">
<metadata>
Created by potrace 1.11, written by Peter Selinger 2001-2013
</metadata>
<g transform="translate(0.000000,806.000000) scale(0.100000,-0.100000)"
fill="#000000" stroke="none">
<path d="M3472 7779 c-9 -4 -28 -5 -41 -2 -14 2 -28 -3 -37 -14 -9 -12 -13
-14 -14 -5 0 11 -30 13 -141 11 -180 -4 -170 7 -175 -207 -2 -86 -4 -157 -4
-157 0 0 -3 -115 -5 -255 -5 -254 -10 -365 -19 -378 -2 -4 -7 -41 -10 -82 -3
-41 -8 -109 -12 -150 -3 -41 -7 -112 -8 -156 -2 -62 -6 -86 -19 -99 -10 -9
-49 -81 -87 -158 -77 -158 -149 -270 -487 -757 -55 -80 -111 -165 -125 -190
-46 -84 -138 -319 -153 -387 -2 -10 -15 -66 -30 -125 -66 -271 -77 -517 -30
-688 1 -3 5 -23 10 -45 11 -49 10 -47 18 -65 3 -8 15 -46 28 -85 39 -122 144
-357 202 -449 52 -83 278 -417 288 -426 10 -9 92 -128 136 -198 42 -67 126
-230 201 -392 27 -58 48 -90 66 -99 24 -13 25 -16 10 -32 -14 -15 -15 -33 -9
-111 4 -51 8 -115 10 -143 2 -27 6 -88 10 -135 4 -47 8 -108 9 -135 3 -59 10
-75 37 -75 18 0 18 -1 1 -18 -16 -16 -18 -32 -15 -123 3 -89 4 -177 1 -198 0
-3 1 -8 2 -11 1 -3 3 -72 5 -155 3 -141 12 -333 20 -435 2 -25 4 -110 6 -190
1 -80 6 -153 11 -163 9 -17 22 -18 154 -15 99 3 148 8 153 16 10 17 1121 22
1121 6 0 -7 7 -15 16 -18 26 -10 276 -8 286 2 6 6 12 68 13 139 2 70 7 187 10
258 12 241 14 289 20 570 3 153 8 281 10 283 2 3 -2 14 -10 25 -12 18 -12 22
1 31 18 14 22 37 30 151 3 50 7 106 9 125 13 135 16 311 5 325 -13 16 -6 35
14 35 14 0 53 75 76 145 16 49 105 220 177 339 29 49 53 91 53 93 0 2 21 34
47 71 26 37 75 108 109 157 35 50 66 95 71 100 31 39 149 224 173 273 72 145
204 503 216 584 7 51 7 56 0 89 -6 26 -5 27 41 25 68 -2 77 20 74 183 -3 183
-6 189 -92 186 l-47 -2 15 35 c31 75 5 191 -105 467 -64 162 -173 352 -269
470 -5 6 -17 23 -27 40 -11 16 -28 38 -38 49 -10 11 -18 23 -18 27 0 4 -6 14
-13 21 -14 14 -134 179 -154 213 -51 82 -193 336 -193 343 0 5 -7 15 -15 22
-9 7 -13 15 -11 18 3 3 -3 17 -14 32 -11 16 -20 35 -20 43 0 9 -17 30 -38 49
-37 31 -39 36 -42 98 -1 36 -4 85 -6 110 -1 25 -5 79 -8 120 -3 41 -13 113
-22 160 -12 65 -17 166 -20 425 -4 287 -7 420 -13 505 -3 35 -19 43 -93 47
-202 10 -265 12 -401 15 -82 2 -151 0 -153 -4 -3 -4 -12 -4 -21 -1 -21 8 -679
10 -701 2z"/>
</g>
</svg>
