<?xml version="1.0" encoding="UTF-8" standalone="no"?>
<!DOCTYPE svg PUBLIC "-//W3C//DTD SVG 1.1//EN" "http://www.w3.org/Graphics/SVG/1.1/DTD/svg11.dtd">
<svg version="1.1" xmlns="http://www.w3.org/2000/svg" xmlns:xlink="http://www.w3.org/1999/xlink" preserveAspectRatio="xMidYMid meet" viewBox="-0.9999999857128778 -1.0001220850772996 24.250000000000004 22" width="18" height="16"><defs><path d="M19.63 3.17C18.37 3.12 8.32 2.71 7.07 2.66C6.71 2.64 6.41 2.91 6.39 3.25C6.37 3.58 6.65 3.87 7.01 3.89C7.79 3.92 11.7 4.08 18.72 4.36L16.42 11.15L6.17 11.15C5.06 5.44 4.44 2.26 4.32 1.63C4.28 1.42 4.13 1.24 3.92 1.17C3.62 1.05 1.19 0.15 0.89 0.04C0.55 -0.08 0.18 0.07 0.05 0.39C-0.09 0.7 0.08 1.06 0.41 1.18C0.59 1.25 1.49 1.58 3.11 2.19C4.24 8 4.87 11.23 4.99 11.87C5.05 12.16 5.32 12.38 5.63 12.38C5.65 12.38 5.76 12.38 5.94 12.38C5.52 13.5 5.28 14.12 5.23 14.25C5.17 14.4 5.19 14.58 5.3 14.71C5.4 14.85 5.56 14.93 5.74 14.93C5.79 14.93 6.19 14.93 6.24 14.93C5.93 15.26 5.74 15.69 5.74 16.16C5.74 17.17 6.61 18 7.69 18C8.76 18 9.64 17.17 9.64 16.16C9.64 15.69 9.45 15.26 9.14 14.93C9.56 14.93 12.96 14.93 13.39 14.93C13.08 15.26 12.89 15.69 12.89 16.16C12.89 17.17 13.76 18 14.84 18C15.91 18 16.78 17.17 16.78 16.16C16.78 15.69 16.59 15.26 16.28 14.93C16.35 14.93 16.83 14.93 16.89 14.93C17.19 14.93 17.43 14.7 17.43 14.42C17.43 14.14 17.19 13.91 16.89 13.91C16.2 13.91 12.74 13.91 6.51 13.91L7.09 12.37C12.97 12.37 16.24 12.37 16.89 12.37C17.18 12.37 17.43 12.2 17.51 11.95C17.78 11.15 19.95 4.77 20.22 3.97C20.28 3.79 20.25 3.59 20.13 3.43C20.02 3.28 19.83 3.18 19.63 3.17ZM6.82 16.16C6.82 15.71 7.21 15.34 7.69 15.34C8.17 15.34 8.55 15.71 8.55 16.16C8.55 16.61 8.17 16.98 7.69 16.98C7.21 16.98 6.82 16.61 6.82 16.16ZM13.97 16.16C13.97 15.71 14.36 15.34 14.84 15.34C15.31 15.34 15.7 15.71 15.7 16.16C15.7 16.61 15.31 16.98 14.84 16.98C14.36 16.98 13.97 16.61 13.97 16.16Z" id="a1BLZxdHdo"></path></defs><g><g><use xlink:href="#a1BLZxdHdo" opacity="1" fill="#1b1a17" fill-opacity="1"></use><g><use xlink:href="#a1BLZxdHdo" opacity="1" fill-opacity="0" stroke="#f92606" stroke-width="1" stroke-opacity="1"></use></g></g></g></svg>