<?xml version="1.0" encoding="UTF-8" standalone="no"?>
<!DOCTYPE svg PUBLIC "-//W3C//DTD SVG 1.1//EN" "http://www.w3.org/Graphics/SVG/1.1/DTD/svg11.dtd">
<svg version="1.1" xmlns="http://www.w3.org/2000/svg" xmlns:xlink="http://www.w3.org/1999/xlink" preserveAspectRatio="xMidYMid meet" viewBox="-0.5000009305015302 -0.5001219999999753 25.5 22.180000000000003" width="21" height="17.68"><defs><path d="M16.28 1C14.29 1 12.47 1.97 11.44 3.53C10.43 1.95 8.68 1 6.72 1C3.73 1 1.34 3.22 1.04 6.27C1.01 6.41 0.91 7.12 1.21 8.27C1.65 9.95 2.65 11.46 4.12 12.67C4.61 13.07 7.05 15.07 11.44 18.68C15.9 15.07 18.38 13.07 18.88 12.67C20.35 11.46 21.35 9.95 21.79 8.27C22.09 7.12 21.99 6.41 21.97 6.27C21.66 3.22 19.27 1 16.28 1ZM18.34 12.12C17.88 12.5 15.58 14.35 11.44 17.7C7.38 14.35 5.12 12.5 4.66 12.13C3.32 11.02 2.4 9.63 2 8.11C1.71 7.01 1.83 6.39 1.83 6.39C1.83 6.38 1.84 6.35 1.84 6.35C2.1 3.67 4.15 1.73 6.72 1.73C8.61 1.73 10.28 2.78 11.07 4.48C11.09 4.53 11.22 4.8 11.44 5.28C11.66 4.8 11.79 4.53 11.81 4.48C12.59 2.81 14.34 1.73 16.28 1.73C18.85 1.73 20.9 3.67 21.17 6.39C21.17 6.39 21.29 7.01 21 8.11C20.6 9.63 19.68 11.02 18.34 12.12Z" id="exE21QViK"></path></defs><g><g><use xlink:href="#exE21QViK" opacity="1" fill="#1b1a17" fill-opacity="1"></use><g><use xlink:href="#exE21QViK" opacity="1" fill-opacity="0" stroke="#f53504" stroke-width="3" stroke-opacity="1"></use></g></g></g></svg>